<svg width="100" height="100" viewBox="0 0 100 100" xmlns="http://www.w3.org/2000/svg">
  <!-- 외부 링 -->
  <circle cx="50" cy="50" r="48" fill="#8B4513" stroke="#654321" stroke-width="2"/>
  
  <!-- 내부 원 -->
  <circle cx="50" cy="50" r="35" fill="#F5F5DC" stroke="#D2B48C" stroke-width="1"/>
  
  <!-- 가장자리 점선 -->
  <circle cx="50" cy="50" r="42" fill="none" stroke="#F5F5DC" stroke-width="1" stroke-dasharray="3,3"/>
  
  <!-- 모서리 사각형들 -->
  <rect x="45" y="8" width="10" height="12" rx="2" fill="#F5F5DC"/>
  <rect x="45" y="80" width="10" height="12" rx="2" fill="#F5F5DC"/>
  <rect x="8" y="45" width="12" height="10" rx="2" fill="#F5F5DC"/>
  <rect x="80" y="45" width="12" height="10" rx="2" fill="#F5F5DC"/>
  
  <!-- 대각선 사각형들 -->
  <rect x="22" y="15" width="8" height="8" rx="1" fill="#F5F5DC" transform="rotate(45 26 19)"/>
  <rect x="70" y="15" width="8" height="8" rx="1" fill="#F5F5DC" transform="rotate(45 74 19)"/>
  <rect x="22" y="77" width="8" height="8" rx="1" fill="#F5F5DC" transform="rotate(45 26 81)"/>
  <rect x="70" y="77" width="8" height="8" rx="1" fill="#F5F5DC" transform="rotate(45 74 81)"/>
  
  <!-- 중앙 텍스트 -->
  <text x="50" y="48" text-anchor="middle" font-family="Orbitron, monospace" font-size="24" font-weight="bold" fill="#8B4513" stroke="white" stroke-width="0.5">$5</text>
  <text x="50" y="65" text-anchor="middle" font-family="Orbitron, monospace" font-size="12" font-weight="bold" fill="#8B4513" stroke="white" stroke-width="0.3">FIVE</text>
</svg>
